<?xml version="1.0" encoding="utf-8"?>
<!-- Generator: Adobe Illustrator 17.1.0, SVG Export Plug-In . SVG Version: 6.00 Build 0)  -->
<!DOCTYPE svg PUBLIC "-//W3C//DTD SVG 1.1//EN" "http://www.w3.org/Graphics/SVG/1.1/DTD/svg11.dtd">
<svg version="1.1" id="Layer_1" xmlns="http://www.w3.org/2000/svg" xmlns:xlink="http://www.w3.org/1999/xlink" x="0px" y="0px"
	 viewBox="111.3 114 121 121.2" enable-background="new 111.3 114 121 121.2" xml:space="preserve">
<g>
	<path id="Blue_1_" fill="#3B5998" d="M225.7,235c3.8,0,6.6-3,6.6-6.6V120.6c0-3.8-3-6.6-6.6-6.6H117.9c-3.8,0-6.6,3-6.6,6.6v107.7
		c0,3.8,3,6.6,6.6,6.6h107.8V235z"/>
	<path id="f" fill="#FFFFFF" d="M194.7,235v-46.9h15.8l2.4-18.3h-18V158c0-5.3,1.5-8.9,9-8.9h9.6v-16.2c-1.7-0.2-7.4-0.8-14.1-0.8
		c-14,0-23.5,8.6-23.5,24.2v13.5h-15.8v18.3h15.8v46.9h18.8V235z"/>
</g>
</svg>
