<?xml version="1.0" encoding="utf-8"?>
<!-- Generator: Adobe Illustrator 17.1.0, SVG Export Plug-In . SVG Version: 6.00 Build 0)  -->
<!DOCTYPE svg PUBLIC "-//W3C//DTD SVG 1.1//EN" "http://www.w3.org/Graphics/SVG/1.1/DTD/svg11.dtd">
<svg version="1.1" id="Layer_1" xmlns="http://www.w3.org/2000/svg" xmlns:xlink="http://www.w3.org/1999/xlink" x="0px" y="0px"
	 viewBox="102.2 116.2 147.7 120.3" enable-background="new 102.2 116.2 147.7 120.3" xml:space="preserve">
<path fill="#6BACDF" d="M249.9,130.5c-5.4,2.4-11.3,4.1-17.4,4.8c6.3-3.8,11.1-9.8,13.4-16.8c-5.9,3.5-12.3,6-19.2,7.4
	c-5.6-5.9-13.4-9.6-22.1-9.6c-16.8,0-30.4,13.5-30.4,30.4c0,2.4,0.3,4.7,0.8,6.9c-25.3-1.2-47.7-13.4-62.6-31.7
	c-2.6,4.5-4.1,9.8-4.1,15.3c0,10.5,5.4,19.8,13.5,25.3c-5-0.2-9.6-1.5-13.7-3.8c0,0.2,0,0.3,0,0.5c0,14.7,10.5,26.9,24.4,29.8
	c-2.6,0.8-5.3,1.1-8,1.1c-2,0-3.9-0.2-5.7-0.6c3.9,12,15,20.9,28.4,21.1c-10.4,8.1-23.5,12.9-37.7,12.9c-2.4,0-4.8-0.2-7.2-0.5
	c13.4,8.6,29.5,13.7,46.6,13.7c55.8,0,86.5-46.3,86.5-86.5c0-1.4,0-2.6-0.2-3.9C240.7,141.9,245.8,136.5,249.9,130.5z"/>
</svg>
